<svg width="1200" height="420" viewBox="0 0 1200 420" xmlns="http://www.w3.org/2000/svg" role="img" aria-labelledby="title desc">
  <title id="title">glyphora — expressive terminal UIs in Scala 3</title>
  <desc id="desc">A Scala-inspired glyphora logo, Scala code panel, and colorful feature badges for signals, widgets, effects, mouse input, and native binaries.</desc>
  <defs>
    <linearGradient id="canvas" x1="30" y1="20" x2="1170" y2="400" gradientUnits="userSpaceOnUse"><stop stop-color="#111827"/><stop offset=".5" stop-color="#080B14"/><stop offset="1" stop-color="#160B25"/></linearGradient>
    <linearGradient id="edge" x1="36" y1="22" x2="1164" y2="398" gradientUnits="userSpaceOnUse"><stop stop-color="#EF3340"/><stop offset=".38" stop-color="#22D3EE"/><stop offset=".72" stop-color="#8B5CF6"/><stop offset="1" stop-color="#E879F9"/></linearGradient>
    <linearGradient id="scala" x1="70" y1="85" x2="195" y2="245" gradientUnits="userSpaceOnUse"><stop stop-color="#FF7A70"/><stop offset=".48" stop-color="#EF3340"/><stop offset="1" stop-color="#B91C3B"/></linearGradient>
    <linearGradient id="word" x1="245" y1="113" x2="650" y2="206" gradientUnits="userSpaceOnUse"><stop stop-color="#F8FAFC"/><stop offset=".47" stop-color="#67E8F9"/><stop offset="1" stop-color="#A78BFA"/></linearGradient>
    <pattern id="grid" width="28" height="28" patternUnits="userSpaceOnUse"><path d="M28 0H0V28" fill="none" stroke="#94A3B8" stroke-opacity=".045"/></pattern>
    <filter id="glow" x="-50%" y="-50%" width="200%" height="200%"><feGaussianBlur stdDeviation="20"/></filter>
  </defs>
  <rect width="1200" height="420" rx="30" fill="url(#canvas)"/>
  <rect width="1200" height="420" rx="30" fill="url(#grid)"/>
  <ellipse cx="160" cy="120" rx="170" ry="120" fill="#EF3340" opacity=".09" filter="url(#glow)"/>
  <ellipse cx="1060" cy="330" rx="190" ry="100" fill="#8B5CF6" opacity=".12" filter="url(#glow)"/>
  <rect x="18" y="18" width="1164" height="384" rx="23" fill="none" stroke="url(#edge)" stroke-width="2"/>

  <g aria-label="glyphora logo">
    <rect x="58" y="70" width="154" height="154" rx="38" fill="#0B1020" stroke="#303B52" stroke-width="3"/>
    <path d="M80 105C103 92 127 101 160 90V110C128 122 103 113 80 126Z" fill="url(#scala)"/>
    <path d="M80 133C103 120 127 129 160 118V138C128 150 103 141 80 154Z" fill="url(#scala)"/>
    <path d="M80 161C103 148 127 157 160 146V166C128 178 103 169 80 182Z" fill="url(#scala)"/>
    <rect x="174" y="101" width="12" height="84" rx="6" fill="#22D3EE"/><circle cx="180" cy="195" r="5" fill="#34D399"/>
  </g>

  <text x="244" y="93" fill="#F87171" font-family="ui-monospace, SFMono-Regular, Menlo, Consolas, monospace" font-size="15" font-weight="700" letter-spacing="3">IO.WORXBEND  /  SCALA 3</text>
  <text x="240" y="174" fill="url(#word)" font-family="ui-monospace, SFMono-Regular, Menlo, Consolas, monospace" font-size="72" font-weight="800" letter-spacing="3">glyphora</text>
  <text x="244" y="208" fill="#A7B4C8" font-family="ui-monospace, SFMono-Regular, Menlo, Consolas, monospace" font-size="18">reactive · composable · native</text>
  <g transform="translate(244 229)" font-family="ui-monospace, SFMono-Regular, Menlo, Consolas, monospace" font-size="13" font-weight="700">
    <rect width="120" height="30" rx="15" fill="#3B121A" stroke="#EF3340" stroke-opacity=".55"/><text x="60" y="20" text-anchor="middle" fill="#FDA4AF">SCALA 3</text>
    <rect x="130" width="142" height="30" rx="15" fill="#082F36" stroke="#22D3EE" stroke-opacity=".55"/><text x="201" y="20" text-anchor="middle" fill="#67E8F9">ZERO REFLECT</text>
    <rect x="282" width="132" height="30" rx="15" fill="#132D25" stroke="#34D399" stroke-opacity=".55"/><text x="348" y="20" text-anchor="middle" fill="#6EE7B7">GRAALVM</text>
  </g>

  <g transform="translate(727 65)" font-family="ui-monospace, SFMono-Regular, Menlo, Consolas, monospace">
    <rect width="406" height="209" rx="16" fill="#090E1A" stroke="#33415A"/>
    <rect width="406" height="38" rx="16" fill="#151D2E"/><path d="M0 24H406V38H0Z" fill="#151D2E"/>
    <circle cx="22" cy="19" r="5" fill="#FB7185"/><circle cx="40" cy="19" r="5" fill="#FBBF24"/><circle cx="58" cy="19" r="5" fill="#34D399"/>
    <text x="203" y="24" text-anchor="middle" fill="#64748B" font-size="11">Hello.scala</text>
    <g font-size="13">
      <text x="22" y="66" fill="#C084FC">object</text><text x="75" y="66" fill="#E2E8F0">Hello</text><text x="119" y="66" fill="#C084FC">extends</text><text x="181" y="66" fill="#67E8F9">TuiApp:</text>
      <text x="36" y="91" fill="#C084FC">val</text><text x="69" y="91" fill="#E2E8F0">count =</text><text x="134" y="91" fill="#67E8F9">Signal</text><text x="181" y="91" fill="#E2E8F0">(0)</text>
      <text x="36" y="116" fill="#C084FC">def</text><text x="69" y="116" fill="#E2E8F0">view =</text><text x="134" y="116" fill="#34D399">panel</text><text x="177" y="116" fill="#FDE68A">("Hello")</text><text x="260" y="116" fill="#E2E8F0">(</text>
      <text x="53" y="141" fill="#34D399">text</text><text x="88" y="141" fill="#FDE68A">(s"count: ${count.get}")</text>
      <text x="36" y="166" fill="#E2E8F0">).rounded</text>
    </g>
    <rect x="22" y="184" width="362" height="7" rx="3.5" fill="#1E293B"/><rect x="22" y="184" width="318" height="7" rx="3.5" fill="url(#edge)"/>
  </g>

  <g transform="translate(58 310)" font-family="ui-monospace, SFMono-Regular, Menlo, Consolas, sans-serif" font-size="15" font-weight="700">
    <g><rect width="202" height="58" rx="14" fill="#121A2A" stroke="#FBBF24" stroke-opacity=".42"/><path d="M19 32H26L30 20L35 40L39 32H46" fill="none" stroke="#FBBF24" stroke-width="3.5" stroke-linecap="round" stroke-linejoin="round"/><text x="56" y="35" fill="#F8FAFC">reactive signals</text></g>
    <g transform="translate(216)"><rect width="202" height="58" rx="14" fill="#121A2A" stroke="#22D3EE" stroke-opacity=".42"/><g fill="none" stroke="#22D3EE" stroke-width="2.5"><rect x="18" y="18" width="11" height="11" rx="2"/><rect x="34" y="18" width="14" height="8" rx="2"/><rect x="18" y="34" width="14" height="8" rx="2"/><rect x="37" y="31" width="11" height="11" rx="2"/></g><text x="60" y="35" fill="#F8FAFC">40+ widgets</text></g>
    <g transform="translate(432)"><rect width="202" height="58" rx="14" fill="#121A2A" stroke="#E879F9" stroke-opacity=".42"/><path d="M31 17L34 26L44 29L34 32L31 42L28 32L18 29L28 26Z" fill="#E879F9"/><path d="M46 35L48 40L53 42L48 44L46 49L44 44L39 42L44 40Z" fill="#67E8F9"/><text x="61" y="35" fill="#F8FAFC">smooth effects</text></g>
    <g transform="translate(648)"><rect width="202" height="58" rx="14" fill="#121A2A" stroke="#A78BFA" stroke-opacity=".42"/><rect x="21" y="14" width="27" height="34" rx="13" fill="none" stroke="#A78BFA" stroke-width="3"/><path d="M34.5 15V26M23 28H46" stroke="#A78BFA" stroke-width="2.5"/><text x="61" y="35" fill="#F8FAFC">mouse aware</text></g>
    <g transform="translate(864)"><rect width="202" height="58" rx="14" fill="#121A2A" stroke="#34D399" stroke-opacity=".42"/><path d="M18 23L34 16L50 23V41L34 49L18 41Z" fill="none" stroke="#34D399" stroke-width="2.5"/><path d="M18 23L34 31L50 23M34 31V49" fill="none" stroke="#34D399" stroke-width="2.5"/><text x="62" y="35" fill="#F8FAFC">native ready</text></g>
  </g>
</svg>
