<svg width="1200" height="232" viewBox="0 0 1200 232" xmlns="http://www.w3.org/2000/svg" role="img" aria-labelledby="title desc"><title id="title">glyphora capabilities</title><desc id="desc">Five original pictogram cards for reactive signals, widgets, effects, mouse input, and native binaries.</desc><defs><linearGradient id="edge" x1="35" y1="20" x2="1165" y2="215" gradientUnits="userSpaceOnUse"><stop stop-color="#EF3340"/><stop offset=".3" stop-color="#22D3EE"/><stop offset=".68" stop-color="#A78BFA"/><stop offset="1" stop-color="#34D399"/></linearGradient></defs><rect width="1200" height="232" rx="22" fill="#080B14"/><g font-family="ui-monospace, SFMono-Regular, Menlo, Consolas, sans-serif"><g transform="translate(28 28)"><rect width="216" height="166" rx="16" fill="#111827" stroke="#FBBF24" stroke-opacity=".55"/><path d="M67 43H82L90 25L101 61L110 43H128" fill="none" stroke="#FBBF24" stroke-width="5" stroke-linecap="round" stroke-linejoin="round"/><text x="22" y="104" fill="#F8FAFC" font-size="17" font-weight="700">reactive signals</text><text x="22" y="130" fill="#8190A6" font-size="12">tracked dependencies</text></g><g transform="translate(260 28)"><rect width="216" height="166" rx="16" fill="#111827" stroke="#22D3EE" stroke-opacity=".55"/><g fill="none" stroke="#22D3EE" stroke-width="4"><rect x="70" y="25" width="21" height="21" rx="4"/><rect x="101" y="25" width="28" height="14" rx="4"/><rect x="70" y="56" width="28" height="15" rx="4"/><rect x="108" y="49" width="21" height="22" rx="4"/></g><text x="22" y="104" fill="#F8FAFC" font-size="17" font-weight="700">40+ widgets</text><text x="22" y="130" fill="#8190A6" font-size="12">input · data · layout</text></g><g transform="translate(492 28)"><rect width="216" height="166" rx="16" fill="#111827" stroke="#E879F9" stroke-opacity=".55"/><path d="M99 21L104 36L120 41L104 46L99 62L94 46L78 41L94 36Z" fill="#E879F9"/><path d="M126 55L129 63L137 66L129 69L126 77L123 69L115 66L123 63Z" fill="#67E8F9"/><text x="22" y="104" fill="#F8FAFC" font-size="17" font-weight="700">smooth effects</text><text x="22" y="130" fill="#8190A6" font-size="12">easing · composition</text></g><g transform="translate(724 28)"><rect width="216" height="166" rx="16" fill="#111827" stroke="#A78BFA" stroke-opacity=".55"/><rect x="83" y="20" width="45" height="60" rx="22" fill="none" stroke="#A78BFA" stroke-width="5"/><path d="M105.5 22V41M85 45H126" stroke="#A78BFA" stroke-width="4"/><text x="22" y="104" fill="#F8FAFC" font-size="17" font-weight="700">mouse aware</text><text x="22" y="130" fill="#8190A6" font-size="12">click · scroll · drag</text></g><g transform="translate(956 28)"><rect width="216" height="166" rx="16" fill="#111827" stroke="#34D399" stroke-opacity=".55"/><path d="M82 27L108 16L134 27V58L108 71L82 58Z" fill="none" stroke="#34D399" stroke-width="4"/><path d="M82 27L108 40L134 27M108 40V71" fill="none" stroke="#34D399" stroke-width="4"/><text x="22" y="104" fill="#F8FAFC" font-size="17" font-weight="700">native ready</text><text x="22" y="130" fill="#8190A6" font-size="12">GraalVM · zero reflect</text></g></g><rect x="28" y="211" width="1144" height="2" fill="url(#edge)"/></svg>
