<svg width="1000" height="230" viewBox="0 0 1000 230" xmlns="http://www.w3.org/2000/svg" role="img" aria-label="glyphora capabilities">
  <defs><linearGradient id="g" x1="40" y1="40" x2="960" y2="190" gradientUnits="userSpaceOnUse"><stop stop-color="#22D3EE"/><stop offset=".5" stop-color="#818CF8"/><stop offset="1" stop-color="#E879F9"/></linearGradient></defs><rect width="1000" height="230" rx="20" fill="#0B1120"/>
  <g font-family="ui-monospace, SFMono-Regular, Menlo, Consolas, monospace">
    <g transform="translate(38 38)"><rect width="210" height="154" rx="12" fill="#111A2E" stroke="#22D3EE"/><path d="M30 41L43 54L30 67M52 68H77" fill="none" stroke="#22D3EE" stroke-width="5"/><text x="28" y="101" fill="#E2E8F0" font-size="17" font-weight="700">40+ widgets</text><text x="28" y="126" fill="#64748B" font-size="12">input · data · layout</text></g>
    <g transform="translate(276 38)"><rect width="210" height="154" rx="12" fill="#111A2E" stroke="#818CF8"/><path d="M30 65C30 40 70 40 70 65S110 90 110 65" fill="none" stroke="#818CF8" stroke-width="5"/><circle cx="30" cy="65" r="6" fill="#22D3EE"/><circle cx="110" cy="65" r="6" fill="#E879F9"/><text x="28" y="101" fill="#E2E8F0" font-size="17" font-weight="700">reactive signals</text><text x="28" y="126" fill="#64748B" font-size="12">automatic dependencies</text></g>
    <g transform="translate(514 38)"><rect width="210" height="154" rx="12" fill="#111A2E" stroke="#E879F9"/><path d="M29 72L54 45L69 60L96 35L111 50" fill="none" stroke="#E879F9" stroke-width="5"/><text x="28" y="101" fill="#E2E8F0" font-size="17" font-weight="700">motion &amp; effects</text><text x="28" y="126" fill="#64748B" font-size="12">easing · composition</text></g>
    <g transform="translate(752 38)"><rect width="210" height="154" rx="12" fill="#111A2E" stroke="#34D399"/><path d="M28 40H112V78H28ZM39 52H101M39 64H83" fill="none" stroke="#34D399" stroke-width="4"/><text x="28" y="101" fill="#E2E8F0" font-size="17" font-weight="700">native binaries</text><text x="28" y="126" fill="#64748B" font-size="12">GraalVM · zero reflect</text></g>
  </g><rect x="38" y="207" width="924" height="2" fill="url(#g)"/>
</svg>
