<svg width="720" height="180" viewBox="0 0 720 180" xmlns="http://www.w3.org/2000/svg" role="img" aria-labelledby="title desc">
  <title id="title">glyphora</title><desc id="desc">Glyphora Scala terminal UI toolkit logo.</desc>
  <defs>
    <linearGradient id="bg" x1="12" y1="10" x2="168" y2="168" gradientUnits="userSpaceOnUse"><stop stop-color="#151B2B"/><stop offset="1" stop-color="#080B14"/></linearGradient>
    <linearGradient id="scala" x1="32" y1="28" x2="125" y2="142" gradientUnits="userSpaceOnUse"><stop stop-color="#FF7A70"/><stop offset=".48" stop-color="#EF3340"/><stop offset="1" stop-color="#B91C3B"/></linearGradient>
    <linearGradient id="word" x1="198" y1="55" x2="655" y2="130" gradientUnits="userSpaceOnUse"><stop stop-color="#F8FAFC"/><stop offset=".48" stop-color="#67E8F9"/><stop offset="1" stop-color="#A78BFA"/></linearGradient>
  </defs>
  <rect x="8" y="8" width="164" height="164" rx="40" fill="url(#bg)" stroke="#2A3348" stroke-width="4"/>
  <path d="M32 43C58 28 84 39 120 27V49C85 62 58 52 32 67Z" fill="url(#scala)"/>
  <path d="M32 73C58 58 84 69 120 57V79C85 92 58 82 32 97Z" fill="url(#scala)"/>
  <path d="M32 103C58 88 84 99 120 87V109C85 122 58 112 32 127Z" fill="url(#scala)"/>
  <rect x="132" y="39" width="13" height="92" rx="6.5" fill="#22D3EE"/><circle cx="138.5" cy="143" r="5" fill="#34D399"/>
  <text x="204" y="112" fill="url(#word)" font-family="ui-monospace, SFMono-Regular, Menlo, Consolas, monospace" font-size="72" font-weight="800" letter-spacing="2">glyphora</text>
  <text x="208" y="143" fill="#94A3B8" font-family="ui-monospace, SFMono-Regular, Menlo, Consolas, monospace" font-size="17" letter-spacing="3">SCALA 3 · TERMINAL UI TOOLKIT</text>
</svg>
