<svg width="128" height="128" viewBox="0 0 128 128" xmlns="http://www.w3.org/2000/svg" role="img" aria-labelledby="title desc">
  <title id="title">glyphora stack mark</title>
  <desc id="desc">Three coral Scala-inspired layers beside a cyan terminal cursor.</desc>
  <defs>
    <linearGradient id="bg" x1="10" y1="8" x2="118" y2="122" gradientUnits="userSpaceOnUse"><stop stop-color="#151B2B"/><stop offset="1" stop-color="#080B14"/></linearGradient>
    <linearGradient id="scala" x1="22" y1="18" x2="90" y2="104" gradientUnits="userSpaceOnUse"><stop stop-color="#FF7A70"/><stop offset=".48" stop-color="#EF3340"/><stop offset="1" stop-color="#B91C3B"/></linearGradient>
    <linearGradient id="cursor" x1="97" y1="27" x2="97" y2="101" gradientUnits="userSpaceOnUse"><stop stop-color="#67E8F9"/><stop offset="1" stop-color="#22D3EE"/></linearGradient>
  </defs>
  <rect x="4" y="4" width="120" height="120" rx="30" fill="url(#bg)" stroke="#2A3348" stroke-width="4"/>
  <path d="M22 28C41 17 61 25 88 16V34C62 43 41 36 22 47Z" fill="url(#scala)"/>
  <path d="M22 52C41 41 61 49 88 40V58C62 67 41 60 22 71Z" fill="url(#scala)"/>
  <path d="M22 76C41 65 61 73 88 64V82C62 91 41 84 22 95Z" fill="url(#scala)"/>
  <rect x="96" y="25" width="10" height="76" rx="5" fill="url(#cursor)"/>
  <circle cx="101" cy="108" r="4" fill="#34D399"/>
</svg>
